<?xml version="1.0" encoding="UTF-8" standalone="no"?>
<svg
   xmlns:dc="http://purl.org/dc/elements/1.1/"
   xmlns:cc="http://creativecommons.org/ns#"
   xmlns:rdf="http://www.w3.org/1999/02/22-rdf-syntax-ns#"
   xmlns:svg="http://www.w3.org/2000/svg"
   xmlns="http://www.w3.org/2000/svg"
   xmlns:sodipodi="http://sodipodi.sourceforge.net/DTD/sodipodi-0.dtd"
   xmlns:inkscape="http://www.inkscape.org/namespaces/inkscape"
   class="preloader"
   x="0px"
   y="0px"
   viewBox="0 0 6000 6000"
   style="enable-background:new 0 0 6000 6000;"
   xml:space="preserve"
   id="svg2"
   version="1.1"
   inkscape:version="0.91 r13725"
   sodipodi:docname="ttt.svg"><metadata
     id="metadata59"><rdf:RDF><cc:Work
         rdf:about=""><dc:format>image/svg+xml</dc:format><dc:type
           rdf:resource="http://purl.org/dc/dcmitype/StillImage" /></cc:Work></rdf:RDF></metadata><defs
     id="defs57" /><sodipodi:namedview
     pagecolor="#ffffff"
     bordercolor="#666666"
     borderopacity="1"
     objecttolerance="10"
     gridtolerance="10"
     guidetolerance="10"
     inkscape:pageopacity="0"
     inkscape:pageshadow="2"
     inkscape:window-width="1855"
     inkscape:window-height="1056"
     id="namedview55"
     showgrid="false"
     inkscape:zoom="0.11125147"
     inkscape:cx="1918.4464"
     inkscape:cy="5243.2408"
     inkscape:window-x="65"
     inkscape:window-y="24"
     inkscape:window-maximized="1"
     inkscape:current-layer="svg2" /><style
     type="text/css"
     id="style4">
      .preloader__white-cover {fill: #ffffff;}
      .preloader__loading-circlce{fill:none;stroke:#bada55;}
      .preloader__inner-circle{fill:#000;}
      .preloader__loading-percents{font-size:30px;}
      .st3{fill:#FFFFFF;}
    </style><mask
     id="cut"><rect
       class="preloader__white-cover"
       width="6000"
       height="6000"
       id="rect7" /><circle
       class="preloader__inner-circle"
       cx="3000"
       cy="3000"
       r="140"
       id="circle9" /></mask><rect
     class="preloader__white-cover"
     width="6000"
     height="6000"
     mask="url(#cut)"
     id="rect11" /><circle
     class="preloader__loading-circlce"
     cx="3000"
     cy="3000"
     r="170"
     id="circle13" /><text
     transform="matrix(1 0 0 1 2994 3200.1863)"
     class="preloader__loading-percents"
     id="text15">0</text>
<g
     class="st3"
     id="g17"
     transform="translate(2862.4,2918.35)"
     style="fill:#ffffff"><g
       id="g19"><path
         d="M 79.8,111.9 C 72,103.2 68,92.5 68,80.3 68,67.4 72.5,56.2 81.5,46.9 c 9,-9.3 20,-14 32.8,-14 13,0 24.1,4 33.1,12 -0.7,-0.8 -1.5,-1.6 -2.2,-2.4 -9.2,-9 -20.9,-13.6 -34.8,-13.6 -12.8,0 -23.8,4.7 -32.8,14 -9,9.3 -13.6,20.6 -13.6,33.4 0,13.2 4.6,24.5 13.8,33.7 0.7,0.7 1.3,1.3 2,1.9 z"
         id="path21"
         inkscape:connector-curvature="0" /><path
         d="m 154.2,42.2 c -0.9,-0.9 -1.8,-1.8 -2.8,-2.6 9.4,10.4 14.2,22.8 14.2,37 0,14.8 -5.3,27.6 -15.8,38.1 -10.5,10.5 -23.4,15.8 -38.3,15.8 -14.1,0 -26.4,-4.7 -36.6,-14.1 0.8,0.8 1.5,1.6 2.3,2.4 10.6,10.3 23.4,15.6 38.2,15.6 14.9,0 27.8,-5.3 38.3,-15.8 10.5,-10.5 15.8,-23.3 15.8,-38.1 0.2,-14.9 -5,-27.7 -15.3,-38.3 z"
         id="path23"
         inkscape:connector-curvature="0" /></g><g
       class="st3"
       id="g25"
       style="fill:#ffffff"><path
         d="m 207.7,84.1 c 0,4.7 -1.7,9.5 -5,14 l -19.5,27.1 5.3,0 17.1,-23.7 c 3.3,-4.6 5,-9.3 5,-14 0,-4.8 -1.6,-8.9 -4.7,-12 -0.2,-0.2 -0.4,-0.4 -0.6,-0.6 1.6,2.7 2.4,5.8 2.4,9.2 z"
         id="path27"
         inkscape:connector-curvature="0" /><polygon
         points="176.7,131 174.3,134.4 211.2,134.4 211.2,128.7 208.4,128.7 208.4,131 "
         id="polygon29" /><path
         d="m 193.4,76.5 c 2.9,0 5.3,0.8 7.5,2.6 -0.6,-1.1 -1.3,-2.1 -2.3,-3 -2.3,-2 -5,-3 -8.1,-3 -3,0 -7,1.6 -12.1,4.8 l 0,5.1 2,-1.3 c 5.5,-3.4 9.8,-5.2 13,-5.2 z"
         id="path31"
         inkscape:connector-curvature="0" /></g></g><g
     class="st3"
     id="g33"
     transform="translate(2861.15,2827.7)"
     style="fill:#ffffff"><g
       id="g35"><path
         d="m 60.4,179.5 -2,0 0,-14.8 6.8,0 c 0.6,0 1.2,0.1 1.8,0.2 0.6,0.1 1.1,0.3 1.6,0.6 0.5,0.3 0.8,0.7 1.1,1.2 0.3,0.5 0.4,1.2 0.4,1.9 0,0.5 -0.1,1 -0.2,1.4 -0.1,0.4 -0.3,0.7 -0.5,1 -0.2,0.3 -0.4,0.5 -0.7,0.7 -0.2,0.2 -0.5,0.3 -0.7,0.5 0.2,0.1 0.4,0.2 0.6,0.3 0.2,0.1 0.4,0.3 0.6,0.4 0.2,0.2 0.3,0.4 0.5,0.8 0.1,0.3 0.2,0.7 0.2,1.2 l 0,2.7 c 0,0.4 0.1,0.7 0.2,0.9 0.1,0.2 0.3,0.4 0.6,0.6 l 0,0.3 -2.4,0 c -0.1,-0.2 -0.1,-0.5 -0.2,-0.9 0,-0.4 -0.1,-0.7 -0.1,-1.1 0,-0.4 0,-0.7 -0.1,-1 0,-0.3 0,-0.5 0,-0.7 0,-0.3 0,-0.6 -0.1,-0.9 0,-0.3 -0.2,-0.6 -0.3,-0.9 -0.2,-0.3 -0.5,-0.5 -0.8,-0.6 -0.4,-0.2 -0.8,-0.2 -1.4,-0.2 l -4.8,0 0,6.4 z m 0,-8 4.6,0 c 0.4,0 0.7,0 1.1,-0.1 0.4,-0.1 0.7,-0.2 1,-0.4 0.3,-0.2 0.5,-0.4 0.7,-0.8 0.2,-0.3 0.3,-0.8 0.3,-1.3 0,-0.6 -0.1,-1 -0.3,-1.3 -0.2,-0.3 -0.4,-0.6 -0.7,-0.7 -0.3,-0.2 -0.6,-0.3 -0.9,-0.3 -0.3,0 -0.6,-0.1 -0.8,-0.1 l -5,0 0,5 z"
         id="path37"
         inkscape:connector-curvature="0" /><path
         d="m 89.6,179.5 -10.9,0 0,-14.8 10.8,0 0,1.8 -8.8,0 0,4.3 8.1,0 0,1.8 -8.1,0 0,5.1 8.9,0 0,1.8 z"
         id="path39"
         inkscape:connector-curvature="0" /><path
         d="m 106.8,169.1 c 0,-0.6 -0.2,-1 -0.4,-1.4 -0.2,-0.4 -0.5,-0.7 -0.9,-0.9 -0.3,-0.2 -0.7,-0.4 -1.1,-0.5 -0.4,-0.1 -0.8,-0.1 -1.2,-0.1 -0.3,0 -0.7,0 -1.1,0.1 -0.4,0.1 -0.8,0.2 -1.1,0.4 -0.3,0.2 -0.6,0.4 -0.9,0.8 -0.2,0.3 -0.4,0.8 -0.4,1.3 0,0.3 0,0.6 0.1,0.8 0.1,0.2 0.3,0.4 0.5,0.6 0.3,0.2 0.6,0.3 1.1,0.5 0.5,0.1 1.1,0.3 1.9,0.5 1.1,0.3 2.1,0.5 2.8,0.8 0.7,0.3 1.3,0.6 1.7,0.9 0.4,0.3 0.7,0.7 0.9,1.2 0.2,0.5 0.2,1 0.2,1.6 0,0.9 -0.2,1.6 -0.5,2.2 -0.3,0.6 -0.8,1 -1.4,1.4 -0.6,0.3 -1.2,0.6 -1.9,0.7 -0.7,0.1 -1.3,0.2 -2,0.2 -1.2,0 -2.2,-0.2 -3,-0.5 -0.8,-0.3 -1.4,-0.8 -1.8,-1.3 -0.4,-0.5 -0.7,-1.1 -0.9,-1.7 -0.2,-0.6 -0.2,-1.2 -0.2,-1.7 l 1.9,0 c 0,0.7 0.1,1.2 0.4,1.7 0.2,0.4 0.6,0.8 1,1.1 0.4,0.3 0.8,0.5 1.3,0.6 0.5,0.1 0.9,0.2 1.4,0.2 0.4,0 0.8,0 1.2,-0.1 0.4,-0.1 0.9,-0.2 1.3,-0.4 0.4,-0.2 0.7,-0.4 1,-0.8 0.3,-0.3 0.4,-0.8 0.4,-1.3 0,-0.4 0,-0.7 -0.1,-1 -0.1,-0.3 -0.3,-0.5 -0.6,-0.8 -0.3,-0.2 -0.8,-0.4 -1.5,-0.6 -0.7,-0.2 -1.6,-0.4 -2.8,-0.7 -0.7,-0.1 -1.2,-0.3 -1.8,-0.5 -0.5,-0.2 -1,-0.4 -1.3,-0.7 -0.4,-0.3 -0.6,-0.6 -0.8,-1 -0.2,-0.4 -0.3,-0.9 -0.3,-1.5 0,-0.6 0.1,-1.1 0.3,-1.7 0.2,-0.5 0.5,-1 0.9,-1.5 0.4,-0.4 0.9,-0.8 1.6,-1 0.6,-0.3 1.4,-0.4 2.3,-0.4 1.3,0 2.3,0.2 3.1,0.5 0.8,0.3 1.3,0.8 1.7,1.2 0.4,0.5 0.6,1 0.8,1.5 0.1,0.5 0.2,1 0.2,1.4 l -2,0 z"
         id="path41"
         inkscape:connector-curvature="0" /><path
         d="m 119.2,179.5 -2,0 0,-14.8 2,0 0,14.8 z"
         id="path43"
         inkscape:connector-curvature="0" /><path
         d="m 127.9,164.7 6,0 c 1,0 1.8,0.2 2.6,0.5 0.8,0.4 1.4,0.8 2,1.5 0.5,0.6 0.9,1.4 1.2,2.3 0.3,0.9 0.4,1.9 0.4,2.9 0,0.8 -0.1,1.7 -0.3,2.6 -0.2,0.9 -0.5,1.7 -1,2.5 -0.5,0.7 -1.1,1.4 -1.9,1.8 -0.8,0.5 -1.8,0.7 -3,0.7 l -5.9,0 0,-14.8 z m 2,13.1 3.9,0 c 1.3,0 2.3,-0.5 3.1,-1.5 0.8,-1 1.2,-2.4 1.2,-4.3 0,-1.9 -0.4,-3.3 -1.2,-4.2 -0.8,-0.9 -1.9,-1.4 -3.2,-1.4 l -3.7,0 0,11.4 z"
         id="path45"
         inkscape:connector-curvature="0" /><path
         d="m 159.1,179.5 -10.9,0 0,-14.8 10.8,0 0,1.8 -8.8,0 0,4.3 8.1,0 0,1.8 -8.1,0 0,5.1 8.9,0 0,1.8 z"
         id="path47"
         inkscape:connector-curvature="0" /><path
         d="m 177.2,164.7 1.9,0 0,14.8 -2.2,0 -7.5,-11.9 0,0 0,11.9 -1.9,0 0,-14.8 2.4,0 7.4,11.9 0,0 0,-11.9 z"
         id="path49"
         inkscape:connector-curvature="0" /><path
         d="m 198.2,169.2 c -0.1,-0.7 -0.4,-1.2 -0.7,-1.6 -0.3,-0.4 -0.7,-0.7 -1.1,-0.9 -0.4,-0.2 -0.8,-0.4 -1.2,-0.4 -0.4,-0.1 -0.8,-0.1 -1.2,-0.1 -0.7,0 -1.3,0.1 -1.9,0.4 -0.6,0.2 -1.1,0.6 -1.5,1.1 -0.4,0.5 -0.8,1.1 -1,1.8 -0.3,0.7 -0.4,1.6 -0.4,2.6 0,0.9 0.1,1.7 0.2,2.4 0.2,0.8 0.4,1.4 0.8,2 0.4,0.5 0.9,1 1.5,1.3 0.6,0.3 1.4,0.5 2.3,0.5 0.3,0 0.7,-0.1 1.1,-0.2 0.4,-0.1 0.8,-0.3 1.2,-0.6 0.4,-0.3 0.8,-0.7 1.1,-1.2 0.3,-0.5 0.6,-1.2 0.8,-2.1 l 1.9,0 c -0.1,0.9 -0.4,1.7 -0.7,2.4 -0.3,0.7 -0.7,1.2 -1.1,1.6 -0.4,0.4 -0.9,0.8 -1.3,1 -0.5,0.2 -0.9,0.4 -1.4,0.5 -0.4,0.1 -0.8,0.2 -1.2,0.2 -0.4,0 -0.6,0 -0.8,0 -0.8,0 -1.7,-0.1 -2.5,-0.4 -0.8,-0.3 -1.5,-0.7 -2.1,-1.4 -0.6,-0.6 -1.1,-1.4 -1.5,-2.4 -0.4,-1 -0.6,-2.2 -0.6,-3.6 0,-1.1 0.2,-2.2 0.5,-3.1 0.3,-0.9 0.8,-1.8 1.4,-2.4 0.6,-0.7 1.3,-1.2 2.2,-1.6 0.9,-0.4 1.8,-0.6 2.9,-0.6 0.9,0 1.8,0.1 2.5,0.4 0.7,0.3 1.3,0.6 1.8,1.1 0.5,0.4 0.9,1 1.2,1.5 0.3,0.6 0.5,1.2 0.5,1.8 l -1.7,0 z"
         id="path51"
         inkscape:connector-curvature="0" /><path
         d="m 219.3,179.5 -10.9,0 0,-14.8 10.8,0 0,1.8 -8.8,0 0,4.3 8.1,0 0,1.8 -8.1,0 0,5.1 8.9,0 0,1.8 z"
         id="path53"
         inkscape:connector-curvature="0" /></g></g></svg>